<mxfile host="Electron" modified="2024-09-26T12:29:00.146Z" agent="Mozilla/5.0 (Windows NT 10.0; Win64; x64) AppleWebKit/537.36 (KHTML, like Gecko) draw.io/24.4.0 Chrome/120.0.6099.109 Electron/28.1.0 Safari/537.36" etag="HePFz19fehN2nIs9NABm" version="24.4.0" type="device">
  <diagram name="Page-1" id="c7488fd3-1785-93aa-aadb-54a6760d102a">
    <mxGraphModel dx="538" dy="348" grid="0" gridSize="10" guides="1" tooltips="1" connect="1" arrows="1" fold="1" page="1" pageScale="1" pageWidth="1100" pageHeight="850" background="none" math="0" shadow="0">
      <root>
        <mxCell id="0" />
        <mxCell id="1" parent="0" />
        <mxCell id="_B7qItSR8GHBUD48FhVs-1" value="" style="ellipse;whiteSpace=wrap;html=1;aspect=fixed;" vertex="1" parent="1">
          <mxGeometry x="567" y="193" width="232" height="232" as="geometry" />
        </mxCell>
        <mxCell id="_B7qItSR8GHBUD48FhVs-2" value="&lt;font style=&quot;font-size: 14px;&quot;&gt;Cooling system parameters of primary and secondary loops&lt;/font&gt;" style="text;html=1;align=center;verticalAlign=middle;whiteSpace=wrap;rounded=0;" vertex="1" parent="1">
          <mxGeometry x="623.5" y="276" width="119" height="66" as="geometry" />
        </mxCell>
        <mxCell id="_B7qItSR8GHBUD48FhVs-3" value="Coolant&lt;div&gt;temperatures&lt;/div&gt;" style="ellipse;whiteSpace=wrap;html=1;" vertex="1" parent="1">
          <mxGeometry x="628.5" y="161" width="109" height="72.67" as="geometry" />
        </mxCell>
        <mxCell id="_B7qItSR8GHBUD48FhVs-9" value="Loops pressure" style="ellipse;whiteSpace=wrap;html=1;" vertex="1" parent="1">
          <mxGeometry x="628.5" y="373" width="109" height="72.67" as="geometry" />
        </mxCell>
        <mxCell id="_B7qItSR8GHBUD48FhVs-10" value="Cooling tower&amp;nbsp;" style="ellipse;whiteSpace=wrap;html=1;" vertex="1" parent="1">
          <mxGeometry x="519.5" y="319" width="109" height="72.67" as="geometry" />
        </mxCell>
        <mxCell id="_B7qItSR8GHBUD48FhVs-11" value="Pumps current" style="ellipse;whiteSpace=wrap;html=1;" vertex="1" parent="1">
          <mxGeometry x="519.5" y="222" width="109" height="72.67" as="geometry" />
        </mxCell>
        <mxCell id="_B7qItSR8GHBUD48FhVs-12" value="Heat exchangers" style="ellipse;whiteSpace=wrap;html=1;" vertex="1" parent="1">
          <mxGeometry x="742.5" y="321.16" width="109" height="72.67" as="geometry" />
        </mxCell>
        <mxCell id="_B7qItSR8GHBUD48FhVs-13" value="Coolant flow rates" style="ellipse;whiteSpace=wrap;html=1;" vertex="1" parent="1">
          <mxGeometry x="742.5" y="224.16" width="109" height="72.67" as="geometry" />
        </mxCell>
      </root>
    </mxGraphModel>
  </diagram>
</mxfile>
